The.Crazies.1080p.BluRay.mkv
****************************

TiTLE......  The Crazies
YEAR.......  2010
GENRE......  Mystery | Sci-Fi | Thriller 
iMDB RATE..  User Rating: 6.8/10 (12,770 votes)
iMDB URL...  http://www.imdb.com/title/tt0455407/
*************************************************

Video
Duration                         : 1h 40mn 
Overall bit rate                 : 8 865 Kbps
Width                            : 1 920 pixels
Height                           : 816 pixels
Display aspect ratio             : 2.35:1
Frame rate                       : 23.976 fps
Stream size                      : 5.05 GiB (81%)

Audio
Format                           : DTS
Duration                         : 1h 40mn
Bit rate mode                    : Constant
Bit rate                         : 1 510 Kbps
Channel(s)                       : 6 channels
Channel positions                : Front: L C R, Surround: L R, LFE
Sampling rate                    : 48.0 KHz
Stream size                      : 1.06 GiB (17%)
Language                         : English

Subtitles: English
******************


